<?xml version="1.0" encoding="utf-8"?>
<!-- Generator: Adobe Illustrator 27.5.0, SVG Export Plug-In . SVG Version: 6.00 Build 0)  -->
<svg version="1.1" xmlns="http://www.w3.org/2000/svg" xmlns:xlink="http://www.w3.org/1999/xlink" x="0px" y="0px"
	 viewBox="0 0 500 500" style="enable-background:new 0 0 500 500;" xml:space="preserve">
<g id="BACKGROUND">
	<rect style="fill:#DEF9F6;" width="500" height="500"/>
</g>
<g id="OBJECTS">
	<g>
		<path style="fill:#DEF9F6;" d="M23.976,399.138c3.263-2.362,7.371-4.006,12.354-4.594c9.857-1.164,21.529,2.665,28.767-3.848
			c5.34-4.805,5.172-13.038,2.999-19.739c-2.173-6.701-5.948-13.022-6.595-20.011c-0.944-10.19,5.744-20.604,15.667-24.395
			c10.615-4.055,24.367-1.404,32.311-9.273c7.23-7.162,5.253-18.645,6.313-28.555c2.441-22.826,26.258-39.87,46.95-48.043
			c15.25-6.024,32.234-6.968,47.568-1.715c17.92,6.139,36.97,11.352,56.176,8.806c14.016-1.858,27.243-7.765,41.329-9.05
			c10.693-0.975,21.342,0.556,29.69,7.353c6.139,4.998,12.413,10.153,16.289,16.917c4.655,8.123,5.384,17.805,4.627,27.043
			c-0.848,10.356-2.87,22.368,4.755,29.756c4.843,4.693,12.306,5.904,19.188,5.593c6.882-0.311,13.685-1.885,20.573-1.732
			c5.315,0.118,10.602,1.279,15.439,3.392c4.243,1.853,8.216,4.508,10.855,8.19c9.728,13.567-0.802,31.811,5.452,46.262
			c5.802,13.407,29.55,14.466,40.9,21.626c9.815,6.192,16.001,17.332,15.875,28.586c-0.028,2.453-0.39,5.037-1.95,6.982
			c-1.5,1.87-3.876,2.867-6.175,3.712c-14.094,5.183-29.156,7.478-44.161,9.075c-69.279,7.374-139.213,0.523-208.858-2.261
			c-56.676-2.266-113.434-1.831-170.148-0.748c-9.048,0.173-18.313,0.331-26.881-2.458C12.261,439.165,8.098,410.636,23.976,399.138
			z"/>
		<g>
			<g>
				<g>
					<path style="fill:#4AA69B;" d="M335.71,361.561c-2.668,3.397-5.491,6.919-9.428,8.697c-3.937,1.778-9.32,1.16-11.587-2.517
						c-1.832-2.971-1.117-6.772-0.518-10.21c1.476-8.473,1.863-17.135,1.149-25.706c-0.497-5.957-1.262-11.994-0.569-17.948
						c0.251-2.158,0.981-4.317,2.428-5.937c0.873-0.977,1.971-1.722,2.914-2.631c2.186-2.107,4.634-5.563,6.042-8.234
						c1.75-3.32,2.155-7.166,3.358-10.721c1.569-4.638,4.816-8.993,9.456-10.556c2.957-0.996,6.074-0.591,8.866-2.024
						c2.715-1.393,4.96-3.324,6.987-5.594c2.346-2.628,4.389-5.526,6.871-8.027c1.532-1.544,3.422-3.003,5.597-3
						c2.184,0.003,4.16,1.569,5.112,3.534c2.217,4.575-0.036,11.074-0.702,15.817c-0.329,2.344-0.965,5.457-0.291,7.786
						c0.527,1.822,2.15,3.207,2.985,4.948c1.35,2.813,1.396,6.219,0.123,9.067c-1.914,4.283-6.6,7.376-6.899,12.058
						c-0.151,2.37,0.899,4.626,1.57,6.904c3.24,10.999-2.95,18.807-11.098,25.213c-4.189,3.294-8.378,6.587-12.568,9.88
						C342.172,354.981,337.701,357.578,335.71,361.561z"/>
					<g>
						<g>
							<path style="fill:#76BBA0;" d="M320.962,365.077c15.879-32.611,30.038-66.03,46.339-98.44
								c0.577-1.147-1.148-2.161-1.727-1.009c-16.301,32.41-30.46,65.829-46.339,98.44
								C318.674,365.22,320.398,366.235,320.962,365.077L320.962,365.077z"/>
						</g>
					</g>
					<g>
						<g>
							<path style="fill:#76BBA0;" d="M339.883,282.499c0.858,7.346,3.225,14.709,9.446,19.206c1.045,0.755,2.044-0.979,1.009-1.727
								c-5.58-4.033-7.69-10.921-8.455-17.479C341.735,281.236,339.733,281.221,339.883,282.499L339.883,282.499z"/>
						</g>
					</g>
					<g>
						<g>
							<path style="fill:#76BBA0;" d="M320.438,311.509c2.68,9.54,9.842,16.494,11.64,26.472c0.228,1.265,2.156,0.729,1.928-0.532
								c-1.802-10.003-8.957-16.922-11.64-26.473C322.019,309.74,320.089,310.265,320.438,311.509L320.438,311.509z"/>
						</g>
					</g>
					<g>
						<g>
							<path style="fill:#76BBA0;" d="M349.863,301.849c8.116-0.035,15.844-1.916,23.08-5.585c1.148-0.582,0.137-2.308-1.009-1.727
								c-6.943,3.521-14.289,5.278-22.07,5.312C348.577,299.854,348.574,301.854,349.863,301.849L349.863,301.849z"/>
						</g>
					</g>
					<g>
						<g>
							<path style="fill:#76BBA0;" d="M333.815,338.15c7.726-6.102,18.911-1.592,26.559-8.227c0.974-0.845-0.446-2.254-1.414-1.414
								c-7.461,6.473-18.745,2.055-26.559,8.227C331.391,337.533,332.815,338.94,333.815,338.15L333.815,338.15z"/>
						</g>
					</g>
				</g>
				<g>
					<path style="fill:#76BBA0;" d="M346.184,383.697c7.811-6.081,14.565-13.528,22.91-18.853c8.95-5.712,20.743-9.117,31.319-9.324
						c10.103-0.159,19.348,3.156,29.112,5.217c1.421,0.3,3.156,0.936,3.267,2.384c0.082,1.063-0.807,1.923-1.62,2.612
						c-5.094,4.32-10.426,8.454-14.57,13.748c-4.331,5.533-7.881,11.585-12.03,17.251c-13.018,17.779-35.689,28.752-57.489,25.543
						c-9.344-1.375-18.157-5.147-26.65-9.279c-7.057-3.433-14.228-7.347-18.865-13.678c-1.535-2.096-2.732-5.082-1.178-7.164
						c4.1-5.492,16.519,1.051,22.037,1.372C330.957,394.024,339.734,388.719,346.184,383.697z"/>
					<g>
						<g>
							<path style="fill:#A7C4A9;" d="M304.991,397.154c16.761,12.136,40.713,13.364,57.728,0.916
								c8.896-6.508,15.583-15.664,24.854-21.681c5.35-3.472,11.548-6.438,17.635-8.3c6.14-1.878,12.658-1.998,18.847-3.716
								c1.239-0.344,0.713-2.274-0.532-1.929c-5.613,1.558-11.443,1.821-17.08,3.231c-4.809,1.203-9.587,3.428-14.008,5.654
								c-9.228,4.645-16.008,11.849-23.45,18.818c-8.683,8.132-18.162,13.383-30.15,14.553c-11.755,1.147-23.332-2.39-32.836-9.272
								C304.956,394.671,303.957,396.406,304.991,397.154L304.991,397.154z"/>
						</g>
					</g>
					<g>
						<g>
							<path style="fill:#A7C4A9;" d="M395.949,359.452c-4.263,3.875-6.414,9.17-8.426,14.442c-0.459,1.204,1.474,1.724,1.929,0.532
								c1.893-4.96,3.902-9.916,7.912-13.56C398.317,359.999,396.9,358.588,395.949,359.452L395.949,359.452z"/>
						</g>
					</g>
					<g>
						<g>
							<path style="fill:#A7C4A9;" d="M366.981,371.801c-4.917,8.505-6.018,17.376-7.995,26.823
								c-0.263,1.256,1.665,1.793,1.929,0.532c1.957-9.353,2.905-17.89,7.793-26.345
								C369.353,371.694,367.626,370.686,366.981,371.801L366.981,371.801z"/>
						</g>
					</g>
					<g>
						<g>
							<path style="fill:#A7C4A9;" d="M387.867,376.066c6.809,2.787,13.901,3.547,21.158,2.399c1.268-0.201,0.73-2.128-0.532-1.928
								c-6.894,1.091-13.647,0.241-20.095-2.399C387.208,373.651,386.69,375.585,387.867,376.066L387.867,376.066z"/>
						</g>
					</g>
					<g>
						<g>
							<path style="fill:#A7C4A9;" d="M359.218,399.925c9.711,5.264,20.497,6.871,31.326,4.697c1.261-0.253,0.727-2.181-0.532-1.929
								c-10.293,2.066-20.557,0.506-29.785-4.496C359.096,397.584,358.085,399.311,359.218,399.925L359.218,399.925z"/>
						</g>
					</g>
					<g>
						<g>
							<path style="fill:#A7C4A9;" d="M332.723,405.609c1.094,3.005,3.813,4.865,6.358,6.632c3.355,2.33,6.998,4.12,10.826,5.525
								c1.21,0.444,1.732-1.488,0.532-1.928c-2.955-1.085-5.775-2.414-8.45-4.076c-2.574-1.599-6.236-3.658-7.338-6.685
								C334.215,403.877,332.281,404.395,332.723,405.609L332.723,405.609z"/>
						</g>
					</g>
					<g>
						<g>
							<path style="fill:#A7C4A9;" d="M334.66,406.138c2.308-4.695,5.618-8.694,9.857-11.77c1.032-0.749,0.035-2.485-1.009-1.727
								c-4.52,3.279-8.109,7.471-10.575,12.487C332.368,406.279,334.092,407.294,334.66,406.138L334.66,406.138z"/>
						</g>
					</g>
				</g>
				<path style="fill:#62B0A4;" d="M383.318,303.392c-9.042,1.846-17.996,4.252-26.451,7.993
					c-8.458,3.742-16.385,8.961-22.757,15.701c-6.738,7.127-10.38,15.661-13.754,24.678c-3.768,10.07-2.928,22.393,4.291,30.361
					c4.254,4.695,10.192,4.745,14.506,8.856c4.449,4.241,10.649,6.274,16.752,5.96c7.094-0.365,13.809-3.612,19.36-8.044
					c10.982-8.767,20.005-22.544,25.012-35.6c3.552-9.263,5.188-19.085,7.736-28.637c1.196-4.485,2.432-8.98,3.659-13.395
					c1.203-4.328,4.573-7.727,6.264-11.848c1.699-4.143-4.272-1.484-5.729-0.919c-3.068,1.19-6.667,1.376-9.913,1.871
					c-5.014,0.765-10.09,1.324-15.076,2.26C385.916,302.873,384.616,303.127,383.318,303.392z"/>
				<g>
					<g>
						<path style="fill:#1E9DA2;" d="M387.513,322.618c-13.632,12.387-27.16,25.085-38.042,40.031
							c-9.663,13.272-20.747,30.224-20.735,47.239c0.001,1.287,2.001,1.289,2,0c-0.012-17.106,11.64-34.419,21.522-47.668
							c10.583-14.189,23.614-26.324,36.669-38.188C389.882,323.165,388.464,321.754,387.513,322.618L387.513,322.618z"/>
					</g>
				</g>
				<g>
					<g>
						<path style="fill:#1E9DA2;" d="M385.79,336.294c-3.848-0.76-7.679-1.458-11.618-1.35c-1.284,0.035-1.29,2.035,0,2
							c3.76-0.103,7.412,0.553,11.086,1.279C386.515,338.471,387.053,336.543,385.79,336.294L385.79,336.294z"/>
					</g>
				</g>
				<g>
					<g>
						<path style="fill:#1E9DA2;" d="M375.342,336.156c1.036-3.412,1.358-6.883,0.941-10.427c-0.148-1.263-2.15-1.278-2,0
							c0.396,3.371,0.117,6.646-0.87,9.895C373.039,336.859,374.968,337.386,375.342,336.156L375.342,336.156z"/>
					</g>
				</g>
				<g>
					<g>
						<path style="fill:#1E9DA2;" d="M362.764,378.743c-7.804,2.136-15.813,1.518-23.762,0.706c-1.279-0.13-1.27,1.87,0,2
							c8.129,0.83,16.324,1.404,24.294-0.778C364.535,380.332,364.009,378.402,362.764,378.743L362.764,378.743z"/>
					</g>
				</g>
				<g>
					<g>
						<path style="fill:#1E9DA2;" d="M376.258,358.549c-7.898,2.791-16.055,2.398-24.275,1.818c-1.284-0.091-1.279,1.91,0,2
							c8.419,0.593,16.735,0.963,24.807-1.89C377.995,360.052,377.476,358.119,376.258,358.549L376.258,358.549z"/>
					</g>
				</g>
				<g>
					<g>
						<path style="fill:#1E9DA2;" d="M355.197,356.946c-5.674-7.254-5.34-17.845-4.269-26.549c0.157-1.274-1.845-1.263-2,0
							c-1.147,9.322-1.191,20.233,4.855,27.963C354.575,359.373,355.981,357.948,355.197,356.946L355.197,356.946z"/>
					</g>
				</g>
				<g>
					<g>
						<path style="fill:#1E9DA2;" d="M340.605,377.996c-5.642-6.473-4.633-18.349-4.426-26.301c0.034-1.288-1.966-1.287-2,0
							c-0.223,8.56-1.064,20.745,5.012,27.715C340.038,380.382,341.447,378.962,340.605,377.996L340.605,377.996z"/>
					</g>
				</g>
			</g>
			<g>
				<g>
					<path style="fill:#4AA69B;" d="M191.274,426.934c4.138,0.729,8.469,1.448,12.475,0.18c4.006-1.267,7.504-5.21,6.76-9.345
						c-0.601-3.341-3.587-5.631-6.253-7.733c-6.57-5.18-12.473-11.204-17.519-17.876c-3.507-4.638-6.871-9.508-11.238-13.372
						c-1.582-1.4-3.513-2.491-5.613-2.724c-1.266-0.141-2.546,0.032-3.819-0.015c-2.951-0.107-6.968-1.022-9.722-2.043
						c-3.423-1.269-6.213-3.792-9.392-5.587c-4.147-2.342-9.327-3.388-13.702-1.509c-2.788,1.198-4.784,3.515-7.736,4.289
						c-2.871,0.753-5.751,0.812-8.693,0.483c-3.406-0.381-6.767-1.155-10.188-1.355c-2.112-0.124-4.429,0.046-6.003,1.46
						c-1.58,1.42-1.995,3.837-1.409,5.879c1.364,4.753,7.214,7.998,10.776,11.003c1.76,1.485,4.241,3.327,5.265,5.451
						c0.801,1.662,0.524,3.719,1.049,5.523c0.848,2.914,3.026,5.411,5.797,6.648c4.167,1.86,9.569,1.059,12.825,4.257
						c1.648,1.619,2.352,3.934,3.345,6.02c4.793,10.071,14.345,11.709,24.406,11.06c5.173-0.334,10.345-0.667,15.518-1.001
						C182.322,426.362,187.247,425.342,191.274,426.934z"/>
					<g>
						<g>
							<path style="fill:#76BBA0;" d="M204.804,418.018c-32.671-13.318-64.622-28.334-97.469-41.232
								c-1.198-0.471-1.718,1.463-0.532,1.928c32.846,12.898,64.797,27.914,97.469,41.232
								C205.464,420.432,205.982,418.498,204.804,418.018L204.804,418.018z"/>
						</g>
					</g>
					<g>
						<g>
							<path style="fill:#76BBA0;" d="M135.343,373.523c3.764,5.36,6.733,11.638,5.322,18.327c-0.265,1.256,1.662,1.792,1.929,0.532
								c1.525-7.224-1.423-14.03-5.523-19.868C136.335,371.468,134.601,372.467,135.343,373.523L135.343,373.523z"/>
						</g>
					</g>
					<g>
						<g>
							<path style="fill:#76BBA0;" d="M168.113,381.7c4.218,8.661,3.577,18.337,8.752,26.733c0.674,1.094,2.405,0.09,1.727-1.009
								c-5.162-8.375-4.534-18.073-8.752-26.733C169.276,379.534,167.551,380.546,168.113,381.7L168.113,381.7z"/>
						</g>
					</g>
					<g>
						<g>
							<path style="fill:#76BBA0;" d="M140.904,391.434c-5.65,5.039-12.133,8.509-19.449,10.45c-1.243,0.33-0.716,2.259,0.532,1.928
								c7.624-2.023,14.446-5.715,20.332-10.964C143.281,391.99,141.863,390.579,140.904,391.434L140.904,391.434z"/>
						</g>
					</g>
					<g>
						<g>
							<path style="fill:#76BBA0;" d="M177.504,406.774c-9.648,0.666-14.957,11.057-24.58,11.281c-1.285,0.03-1.29,2.03,0,2
								c9.831-0.228,15.005-10.619,24.58-11.281C178.781,408.685,178.791,406.685,177.504,406.774L177.504,406.774z"/>
						</g>
					</g>
				</g>
				<g>
					<path style="fill:#76BBA0;" d="M184.859,327.106c-3.422-9.289-5.226-19.179-9.5-28.108
						c-4.584-9.577-12.801-18.695-21.673-24.456c-8.496-5.469-18.097-7.536-27.478-10.941c-1.365-0.496-3.175-0.871-4.034,0.3
						c-0.631,0.86-0.33,2.059-0.004,3.074c2.045,6.359,4.39,12.685,5.114,19.369c0.757,6.986,0.576,13.999,1.107,21.003
						c1.667,21.972,15.126,43.262,35.333,52.048c8.661,3.766,18.137,5.216,27.531,6.192c7.806,0.811,15.962,1.273,23.243-1.654
						c2.411-0.969,5.004-2.873,4.783-5.462c-0.582-6.829-14.584-7.83-19.439-10.471
						C192.336,343.917,187.684,334.777,184.859,327.106z"/>
					<g>
						<g>
							<path style="fill:#A7C4A9;" d="M212.762,358.286c-11.47,0.809-22.821-2.174-32.144-8.999
								c-10.471-7.665-15.774-18.063-18.955-30.381c-2.653-10.275-5.061-19.909-10.933-28.899c-2.604-3.987-5.308-7.944-8.758-11.25
								c-3.79-3.631-8.046-6.677-11.598-10.566c-0.87-0.952-2.281,0.465-1.414,1.414c3.726,4.079,8.235,7.247,12.156,11.114
								c4.388,4.327,7.997,9.946,10.938,15.344c5.93,10.884,6.647,23.513,11.324,34.867c7.983,19.378,28.864,30.803,49.384,29.356
								C214.039,360.196,214.049,358.196,212.762,358.286L212.762,358.286z"/>
						</g>
					</g>
					<g>
						<g>
							<path style="fill:#A7C4A9;" d="M153.461,280.733c1.439,5.239,0.557,10.439-0.456,15.672
								c-0.243,1.258,1.684,1.796,1.929,0.532c1.08-5.582,1.99-11.149,0.456-16.735
								C155.049,278.962,153.119,279.488,153.461,280.733L153.461,280.733z"/>
						</g>
					</g>
					<g>
						<g>
							<path style="fill:#A7C4A9;" d="M171.479,305.996c-0.334,9.743-4.028,17.521-7.298,26.478
								c-0.442,1.211,1.49,1.733,1.928,0.532c3.317-9.087,7.031-17.164,7.369-27.01C173.523,304.708,171.523,304.71,171.479,305.996
								L171.479,305.996z"/>
						</g>
					</g>
					<g>
						<g>
							<path style="fill:#A7C4A9;" d="M154.038,296.693c-6.895-1.151-13.062-4.007-18.342-8.597
								c-0.967-0.841-2.388,0.568-1.414,1.414c5.525,4.803,11.999,7.905,19.225,9.112
								C154.766,298.832,155.307,296.905,154.038,296.693L154.038,296.693z"/>
						</g>
					</g>
					<g>
						<g>
							<path style="fill:#A7C4A9;" d="M165.248,332.006c-10.458-0.613-20.043-4.757-27.668-11.938
								c-0.937-0.882-2.354,0.53-1.414,1.414c8.031,7.563,18.071,11.878,29.083,12.524
								C166.534,334.081,166.529,332.081,165.248,332.006L165.248,332.006z"/>
						</g>
					</g>
					<g>
						<g>
							<path style="fill:#A7C4A9;" d="M183.537,351.224c-4.689,3.493-13.974,2.006-19.28,0.925
								c-1.257-0.256-1.794,1.671-0.532,1.929c5.997,1.221,15.53,2.816,20.822-1.127
								C185.567,352.191,184.57,350.454,183.537,351.224L183.537,351.224z"/>
						</g>
					</g>
					<g>
						<g>
							<path style="fill:#A7C4A9;" d="M184.795,352.276c0.516-5.512-0.25-10.82-2.307-15.96c-0.472-1.18-2.408-0.665-1.929,0.532
								c1.99,4.972,2.734,10.097,2.236,15.428C182.675,353.557,184.676,353.549,184.795,352.276L184.795,352.276z"/>
						</g>
					</g>
				</g>
				<g>
					<path style="fill:#62B0A4;" d="M104.843,303.249c8.838-1.6,17.798-2.662,26.791-2.338c8.995,0.325,18.045,2.175,26.239,5.962
						c8.665,4.005,15.041,10.4,21.349,17.328c7.045,7.737,10.74,19.177,7.097,28.986c-2.147,5.781-7.495,7.972-9.907,13.246
						c-2.487,5.441-7.355,9.518-12.983,11.441c-6.542,2.234-13.784,1.727-20.402-0.271c-13.093-3.952-26.226-13.14-35.47-23.129
						c-6.557-7.086-11.587-15.37-17.342-23.081c-2.702-3.62-5.444-7.235-8.148-10.781c-2.651-3.476-6.925-5.329-9.942-8.442
						c-3.033-3.129,3.324-2.886,4.845-2.901c3.202-0.034,6.522-1.167,9.634-1.892c4.808-1.121,9.596-2.451,14.44-3.407
						C102.307,303.719,103.574,303.478,104.843,303.249z"/>
					<g>
						<g>
							<path style="fill:#1E9DA2;" d="M89.036,315.961c20.252,7.554,40.558,15.464,58.992,26.897
								c8.94,5.545,17.419,11.822,25.314,18.774c7.806,6.873,15.245,14.415,19.106,24.262c0.464,1.185,2.399,0.669,1.928-0.532
								c-7.232-18.447-26.277-31.955-42.353-42.34c-19.371-12.514-40.939-20.964-62.456-28.99
								C88.361,313.582,87.839,315.514,89.036,315.961L89.036,315.961z"/>
						</g>
					</g>
					<g>
						<g>
							<path style="fill:#1E9DA2;" d="M99.053,330.233c3.792-2.462,7.597-4.889,11.866-6.447c1.2-0.438,0.681-2.371-0.532-1.929
								c-4.435,1.618-8.402,4.089-12.344,6.648C96.968,329.204,97.969,330.936,99.053,330.233L99.053,330.233z"/>
						</g>
					</g>
					<g>
						<g>
							<path style="fill:#1E9DA2;" d="M111.107,322.148c-2.514-3.121-4.268-6.646-5.3-10.516c-0.331-1.242-2.261-0.715-1.929,0.532
								c1.124,4.212,3.082,8.005,5.815,11.398C110.5,324.564,111.908,323.141,111.107,322.148L111.107,322.148z"/>
						</g>
					</g>
					<g>
						<g>
							<path style="fill:#1E9DA2;" d="M142.686,367.773c9.962-1.103,18.931-5.458,27.704-10.054c1.141-0.597,0.131-2.324-1.01-1.727
								c-8.433,4.418-17.109,8.719-26.694,9.781C141.421,365.913,141.407,367.914,142.686,367.773L142.686,367.773z"/>
						</g>
					</g>
					<g>
						<g>
							<path style="fill:#1E9DA2;" d="M118.566,351.229c10.342-0.368,19.609-4.599,28.774-9.04c1.158-0.561,0.145-2.286-1.009-1.727
								c-8.86,4.293-17.761,8.411-27.765,8.767C117.283,349.275,117.276,351.275,118.566,351.229L118.566,351.229z"/>
						</g>
					</g>
					<g>
						<g>
							<path style="fill:#1E9DA2;" d="M143.335,338.559c3.348-11.191-1.783-23.545-7.191-33.287
								c-0.625-1.126-2.353-0.118-1.727,1.009c5.118,9.22,10.163,21.138,6.989,31.746
								C141.037,339.263,142.967,339.791,143.335,338.559L143.335,338.559z"/>
						</g>
					</g>
					<g>
						<g>
							<path style="fill:#1E9DA2;" d="M168.965,355.808c2.188-4.017,0.786-10.317-0.126-14.585
								c-1.389-6.501-4.058-12.654-6.678-18.734c-0.508-1.179-2.231-0.161-1.727,1.009c2.089,4.848,4.176,9.729,5.611,14.819
								c1.215,4.308,3.535,12.181,1.193,16.481C166.623,355.929,168.349,356.94,168.965,355.808L168.965,355.808z"/>
						</g>
					</g>
				</g>
			</g>
		</g>
		<g>
			<path style="fill:#282D3A;" d="M329.474,419.752H186.67c-8.284,0-15-6.716-15-15V107.779c0-8.284,6.716-15,15-15h142.804
				c8.284,0,15,6.716,15,15v296.972C344.474,413.036,337.759,419.752,329.474,419.752z"/>
			<path style="fill:#343A4A;" d="M322.698,419.752H179.894c-8.284,0-15-6.716-15-15V107.779c0-8.284,6.716-15,15-15h142.804
				c8.284,0,15,6.716,15,15v296.972C337.698,413.036,330.982,419.752,322.698,419.752z"/>
			<path style="fill:#B1DAEB;" d="M312.262,379.231H190.329c-8.284,0-15-6.716-15-15V127.525c0-8.284,6.716-15,15-15h121.933
				c8.284,0,15,6.716,15,15v236.706C327.262,372.515,320.547,379.231,312.262,379.231z"/>
			<path style="opacity:0.5;fill:#343A4A;" d="M273.032,104.185h-43.473c-1.25,0-2.264-1.014-2.264-2.264l0,0
				c0-1.25,1.014-2.264,2.264-2.264h43.473c1.25,0,2.264,1.014,2.264,2.264l0,0C275.296,103.172,274.283,104.185,273.032,104.185z"
				/>
			<g>
				<defs>
					<rect id="SVGID_1_" x="134.822" y="112.525" width="207.958" height="266.706"/>
				</defs>
				<clipPath id="SVGID_00000093151039261100037350000010841381211727393459_">
					<use xlink:href="#SVGID_1_"  style="overflow:visible;"/>
				</clipPath>
				<g style="clip-path:url(#SVGID_00000093151039261100037350000010841381211727393459_);">
					<path style="fill:#231F20;" d="M232.377,450.431c-2.449,1.126-5.061,2.023-7.235,3.57c-2.033,1.446-4.733,4.954-3.477,7.668
						c1.159,2.504,4.739,2.127,7.187,2.392c8.309,0.897,16.74-0.058,24.567-3.037c0.04-5.34,0.105-8.674-2.072-13.843
						c-0.599-1.426-0.978-6.019-2.602-6.519c-0.312-0.096-0.648-0.048-0.971,0.002c-6.181,0.947-6.771,3.376-11.169,7.195
						C235.355,448.944,233.897,449.731,232.377,450.431z"/>
					<path style="fill:#231F20;" d="M267.76,450.431c-2.449,1.126-5.061,2.023-7.235,3.57c-2.033,1.446-4.733,4.954-3.477,7.668
						c1.159,2.504,4.739,2.127,7.187,2.392c8.309,0.897,16.74-0.058,24.567-3.037c0.04-5.34,0.105-8.674-2.072-13.843
						c-0.599-1.426-0.978-6.019-2.602-6.519c-0.312-0.096-0.648-0.048-0.971,0.002c-6.181,0.947-6.771,3.376-11.169,7.195
						C270.737,448.944,269.28,449.731,267.76,450.431z"/>
					<path style="fill:#FAC39A;" d="M157.78,234.317c1.106,0.687,2.249,1.314,3.423,1.876c1.184,0.567,2.403,1.071,3.515,1.768
						c1.678,1.052,3.059,2.509,4.607,3.743c0.129,0.103,0.271,0.209,0.436,0.212c0.163,0.004,0.31-0.094,0.441-0.192
						c1.355-1.003,2.439-2.37,3.106-3.919c0.094-0.219,0.182-0.451,0.161-0.688c-0.024-0.279-0.193-0.521-0.346-0.755
						c-1.713-2.612-2.059-6.157-3.068-9.093c-0.767-2.232-1.268-4.554-1.489-6.903c-0.122-1.294-0.207-2.713-1.095-3.663
						c-0.243-0.26-0.585-0.482-0.933-0.412c-0.156,0.032-0.295,0.119-0.424,0.213c-1.765,1.284-1.899,4.613-1.977,6.637
						c-1.588-3.45-3.9-6.508-6.194-9.536c-0.825-1.089-1.986-2.308-3.312-1.977c-0.592,1.16-0.021,2.55,0.547,3.722
						c0.927,1.912,1.853,3.823,2.78,5.735c-1.438-2.887-3.378-5.523-5.708-7.753c-0.411-0.394-0.925-0.803-1.484-0.697
						c-0.586,0.111-0.93,0.774-0.894,1.369c0.036,0.595,0.352,1.131,0.66,1.642c1.292,2.143,2.584,4.287,3.876,6.43
						c-1.235-1.692-2.704-3.214-4.351-4.51c-0.467-0.367-1.069-0.734-1.617-0.505c-0.469,0.196-0.677,0.779-0.602,1.282
						c0.076,0.503,0.369,0.943,0.661,1.36c1.305,1.864,2.737,3.639,4.282,5.309c-0.914-1.493-2.421-2.612-4.114-3.056
						c-0.363-0.095-0.758-0.158-1.104-0.016c-0.579,0.237-0.807,0.983-0.659,1.591c0.287,1.18,1.695,2.654,2.484,3.577
						c1.071,1.252,2.227,2.43,3.459,3.524C154.383,232,156.035,233.233,157.78,234.317z"/>
					<path style="fill:#EBF3F7;" d="M214.773,220.404c-0.277,0.82-0.538,1.643-0.793,2.463c-1.453,4.687-2.995,9.497-5.493,13.748
						c-1.695,2.884-4.12,5.939-7.28,7.243c-3.645,1.505-7.733,1.011-11.118-0.927c-3.75-2.147-6.992-5.62-9.503-9.106
						c-5.118-7.105-11.76-0.577-15.927,4.462c-0.877,1.061-1.712,2.233-1.939,3.591c-0.843,5.038,5.496,11.347,8.63,14.754
						c7.67,8.339,19.57,15.915,31.36,14.688c12.909-1.343,21.507-16.028,25.617-26.998c4.158-11.1,5.666-23.355,3.654-35.077
						c-0.615-3.581-3.432-4.322-6.66-3.254c-1.352,0.447-2.539,1.299-3.579,2.272C218.229,211.546,216.284,215.925,214.773,220.404z
						"/>
					<path style="fill:#343A4A;" d="M253.727,446.462c0.53-0.003,1.39-103.743,1.783-112.741c-7.029-0.217-14.053-0.57-21.069-1.053
						c-7.015-0.483-13.623-3.548-14.823,5.158c-0.554,4.022,1.539,6.914,2.423,10.667c1.361,5.783,1.224,12.126,1.713,18.038
						c2.212,26.737,4.873,53.436,7.981,80.084C239.066,446.564,246.396,446.513,253.727,446.462z"/>
					<path style="fill:#343A4A;" d="M221.377,152.563c-0.439,10.451,2.863,21.786,12.484,27.199
						c2.298,1.293,4.804,2.175,7.337,2.907c5.103,1.474,10.452,2.364,15.733,1.792c5.281-0.572,10.511-2.71,14.147-6.583
						c2.134-2.272,3.651-5.047,5.01-7.852c2.424-5.005,4.419-10.218,5.956-15.563c0.784-2.727,1.226-6.194-1.026-7.921
						c-0.565-0.434-1.259-0.707-1.737-1.236c-0.409-0.453-0.618-1.048-0.799-1.631c-0.764-2.466-1.23-5.082-2.621-7.256
						c-2.012-3.144-5.604-4.842-9.019-6.35c-3.195-1.411-5.52-2.424-8.999-1.877c-3.046,0.478-6.045,1.257-8.939,2.319
						c-3.481,1.277-6.741,3.311-10.369,4.157c-3.955,0.922-10.077-0.163-12.659,3.545
						C223.032,142.299,221.585,147.635,221.377,152.563z"/>
					<path style="fill:#343A4A;" d="M289.446,446.001c0.53-0.027-3.311-103.699-3.326-112.706
						c-7.032,0.101-14.065,0.067-21.095-0.097c-7.03-0.164-13.769-2.928-14.574,5.824c-0.372,4.043,1.851,6.837,2.903,10.546
						c1.622,5.716,1.772,12.059,2.528,17.941c3.421,26.609,7.289,53.161,11.601,79.64
						C274.804,446.767,282.125,446.384,289.446,446.001z"/>
					<rect x="240.932" y="182.007" style="fill:#F99D6E;" width="19.575" height="23.705"/>
					<g>
						<defs>
							<path id="SVGID_00000049219578060267028660000013093984439129405835_" d="M217.977,226.08
								c0.714-4.464,2.049-9.18,4.024-13.25c2.682-5.524,7.333-9.725,13.613-10.217c5.344-0.419,10.701-0.638,16.057-0.827
								c4.927-0.174,9.996-0.721,14.907-0.111c5.078,0.631,10.118,2.512,14.149,5.704c4.205,3.33,4.919,8.224,5.274,13.306
								c2.08,24.957,3.604,49.927,6.444,74.819c1.122,9.839,7.101,63.997,7.165,71.276c-14.198,6.074-30.118,6.459-45.555,6.053
								c-13.357-0.351-26.949-1.276-39.413-6.089c-0.009-23.363,1.268-46.662,1.261-70.01c-0.004-12.074-0.07-24.148,0.11-36.221
								C216.185,249.06,216.164,237.418,217.977,226.08z"/>
						</defs>
						<use xlink:href="#SVGID_00000049219578060267028660000013093984439129405835_"  style="overflow:visible;fill:#FFFFFF;"/>
						<clipPath id="SVGID_00000052089785847516463160000006204927365759708296_">
							<use xlink:href="#SVGID_00000049219578060267028660000013093984439129405835_"  style="overflow:visible;"/>
						</clipPath>
						<polygon style="clip-path:url(#SVGID_00000052089785847516463160000006204927365759708296_);fill:#ACD4EA;" points="
							247.495,268.208 233.443,193.86 265.077,193.86 						"/>
					</g>
					
						<ellipse transform="matrix(0.0559 -0.9984 0.9984 0.0559 69.6968 399.9814)" style="fill:#FAC39A;" cx="246.347" cy="163.137" rx="29.183" ry="22.493"/>
					<path style="fill:#FAC39A;" d="M290.663,291.76c-0.6-0.686-4.29-5.333-5.376-4.846c-0.276,0.124-0.44,0.405-0.6,0.662
						c-1.962,3.137-5.698,4.557-8.935,6.349c-0.162,0.09-0.332,0.19-0.414,0.356c-0.087,0.176-0.054,0.386-0.005,0.576
						c0.303,1.167,1.145,2.106,1.96,2.995c2.249,2.456,4.397,4.538,7.008,6.614c0.383,0.304,0.79,0.62,1.274,0.686
						c1.267,0.175,2.05-1.309,2.44-2.527c0.973-3.038,1.946-6.076,2.919-9.113c0.122-0.38,0.244-0.792,0.115-1.17
						C290.972,292.12,290.817,291.936,290.663,291.76z"/>
					<path style="fill:#343A4A;" d="M271.29,170.123c3.352-10.317,2.954-20.023,1.964-30.634c-0.274-2.932-1.838-4.559-3.893-6.686
						c-1.562-1.617-3.173-3.269-5.209-4.223c-5.809-2.721-12.818,1.046-19.015-0.609c-2.483-0.663-4.661-2.159-7.076-3.04
						c-5.472-1.995-12.062-0.436-16.06,3.8c-0.645,0.684-1.234,1.442-1.586,2.314c-0.751,1.86-0.33,4.009,0.526,5.823
						c2.263,4.792,6.111,5.79,10.531,7.598c3.556,1.455,7.77,1.689,11.557,1.739c4.268,0.056,8.284-0.833,12.3,1.23
						c1.437,0.738,2.7,1.773,4.089,2.596c1.412,0.837,2.985,1.479,4.112,2.674c1.547,1.641,1.972,4.009,2.385,6.226
						c0.722,3.877,1.616,7.722,2.679,11.519c0.145,0.518,0.354,1.104,0.858,1.293C270.313,172.067,271.007,170.996,271.29,170.123z"
						/>
					<path style="fill:#EBF3F7;" d="M287.798,256.736c-0.924-9.668-6.867-16.201-10.314-24.893
						c-3.251-8.199-5.76-17.652-3.875-26.479c0.076-0.354,0.168-0.73,0.432-0.977c0.502-0.471,1.312-0.242,1.945,0.029
						c7.007,2.99,13.113,7.594,18.434,12.993c5.947,6.034,10.583,13.063,13.523,21.126c2.028,5.561,2.924,11.481,3.275,17.39
						c0.339,5.706,0.172,11.489-1.168,17.046c-2.384,9.883-8.614,17.644-16.726,23.446c-0.656,0.469-1.45,0.95-2.218,0.705
						c-0.388-0.124-0.695-0.417-0.987-0.702c-2.892-2.831-5.668-5.781-8.32-8.838c-0.411-0.475-0.829-0.968-1.029-1.563
						c-0.469-1.399,0.372-2.862,1.122-4.133C286.339,274.344,288.631,265.451,287.798,256.736z"/>
					<path style="fill:#FAC39A;" d="M274.678,165.834c1.39,0.994,2.473,2.855,2.492,4.572c0.014,1.359-0.622,2.653-1.455,3.728
						c-1.838,2.372-3.874,3.934-6.864,4.392c-2.06,0.316-5.052,0.139-5.495-2.419c-0.395-2.286,1.464-5.535,2.778-7.296
						C268.097,166.182,271.452,163.525,274.678,165.834z"/>
					<polygon style="fill:#F99D6E;" points="240.618,200.915 246.991,209.484 260.484,199.898 					"/>
					<polygon style="fill:#EBF3F7;" points="247.809,267.146 259.374,240.777 256.036,235.069 261.539,235.033 273.956,203.02 
						263.15,199.27 					"/>
					<polygon style="fill:#C7E8FF;" points="246.991,209.484 260.507,197.811 267.852,200.55 253.051,216.869 					"/>
					<polygon style="fill:#EBF3F7;" points="247.495,268.208 236.179,240.777 239.517,235.069 234.014,235.033 222.641,205.712 
						235.558,201.775 					"/>
					<polygon style="fill:#C7E8FF;" points="240.932,199.27 246.991,209.484 239.854,216.869 232.447,202.723 					"/>
					<g>
						<g>
							<g>
								<g>
									<g>
										<path style="fill:#343A4A;" d="M251.835,157.226c0.507-0.594,1.222-0.899,1.936-1.055c0.721-0.146,1.46-0.12,2.162,0.037
											c0.702,0.157,1.37,0.452,1.957,0.872c0.578,0.429,1.102,0.971,1.372,1.703c-0.772-0.059-1.394-0.163-2.01-0.265
											c-0.608-0.109-1.187-0.227-1.759-0.359l-1.725-0.42L251.835,157.226z"/>
									</g>
								</g>
							</g>
							<path style="fill:#F78B7C;" d="M261.309,171.106c-0.066,1.431-2.063,2.501-4.46,2.391c-2.397-0.11-4.287-1.36-4.222-2.79
								c0.066-1.431,2.063-2.501,4.46-2.391C259.485,168.426,261.375,169.675,261.309,171.106z"/>
							<path style="fill:#3D2217;" d="M252.091,163.471c-0.067,1.619,0.704,2.974,1.723,3.026c1.019,0.052,1.9-1.218,1.967-2.837
								c0.067-1.619-0.704-2.974-1.723-3.027C253.039,160.582,252.158,161.852,252.091,163.471z"/>
							<g>
								<g>
									<g>
										<path style="fill:#343A4A;" d="M234.291,156.27l-1.972,0.333l-1.756,0.26c-0.582,0.079-1.169,0.143-1.785,0.196
											c-0.623,0.045-1.251,0.092-2.025,0.08c0.336-0.704,0.908-1.196,1.522-1.57c0.623-0.365,1.315-0.596,2.029-0.689
											c0.713-0.092,1.452-0.05,2.156,0.162C233.157,155.263,233.841,155.632,234.291,156.27z"/>
									</g>
								</g>
							</g>
							<path style="fill:#F78B7C;" d="M224.921,169.283c-0.066,1.43,1.525,2.666,3.552,2.759c2.028,0.093,3.725-0.991,3.79-2.421
								c0.066-1.431-1.524-2.666-3.552-2.759C226.684,166.768,224.987,167.852,224.921,169.283z"/>
							<path style="fill:#3D2217;" d="M233.439,162.341c-0.067,1.619-0.948,2.889-1.967,2.837c-1.019-0.052-1.791-1.407-1.723-3.026
								c0.067-1.619,0.948-2.889,1.967-2.837C232.734,159.367,233.506,160.722,233.439,162.341z"/>
							<path style="fill:#E59A7F;" d="M244.863,172.35c-0.043,0.651-1.206,1.104-2.598,1.013c-1.392-0.092-2.485-0.694-2.442-1.344
								c0.043-0.651,1.206-1.104,2.597-1.012C243.812,171.097,244.906,171.699,244.863,172.35z"/>
						</g>
						<g>
							<defs>
								<path id="SVGID_00000070799839105787102090000011773795124918114476_" d="M243.135,184.649
									c-4.426,0.127-8.343-2.751-9.051-7.211c-0.013-0.084-0.026-0.167-0.037-0.251c-0.012-0.087-0.023-0.175-0.034-0.263
									c0,0,2.808,1.463,8.738,1.736c5.913,0.272,8.497-0.935,8.512-0.942c-0.057,0.027-0.132,0.519-0.15,0.581
									c-0.465,1.582-1.095,2.979-2.312,4.124C247.27,183.866,245.22,184.588,243.135,184.649z"/>
							</defs>
							<use xlink:href="#SVGID_00000070799839105787102090000011773795124918114476_"  style="overflow:visible;fill:#FFFFFF;"/>
							<clipPath id="SVGID_00000161624091344966598360000010669221125258576004_">
								<use xlink:href="#SVGID_00000070799839105787102090000011773795124918114476_"  style="overflow:visible;"/>
							</clipPath>
						</g>
					</g>
					
						<line style="fill:none;stroke:#ACD4EA;stroke-width:0.75;stroke-miterlimit:10;" x1="246.926" y1="242.13" x2="250.41" y2="372.721"/>
					<polygon style="fill:#EBF3F7;" points="274.882,289.197 290.789,306.231 284.034,311.679 271.396,294.774 					"/>
					<polygon style="fill:#EBF3F7;" points="223.785,292.068 216.758,306.612 221.987,310.535 229.832,294.192 					"/>
					<path style="fill:#EBF3F7;" d="M255.51,278.596c0,0.773-0.626,1.399-1.399,1.399s-1.4-0.626-1.4-1.399
						c0-0.773,0.627-1.4,1.4-1.4S255.51,277.823,255.51,278.596z"/>
					<path style="fill:#EBF3F7;" d="M255.51,302.701c0,0.773-0.626,1.4-1.399,1.4s-1.4-0.626-1.4-1.4c0-0.773,0.627-1.399,1.4-1.399
						S255.51,301.928,255.51,302.701z"/>
				</g>
			</g>
			<g>
				<defs>
					<path id="SVGID_00000111893165598391344160000013815645886226073736_" d="M312.262,379.231H190.329c-8.284,0-15-6.716-15-15
						V127.525c0-8.284,6.716-15,15-15h121.933c8.284,0,15,6.716,15,15v236.706C327.262,372.515,320.547,379.231,312.262,379.231z"/>
				</defs>
				<clipPath id="SVGID_00000178162954318748903340000010521709807400716938_">
					<use xlink:href="#SVGID_00000111893165598391344160000013815645886226073736_"  style="overflow:visible;"/>
				</clipPath>
				<g style="clip-path:url(#SVGID_00000178162954318748903340000010521709807400716938_);">
					
						<rect x="210.186" y="72.084" transform="matrix(0.7692 0.639 -0.639 0.7692 204.7245 -93.0377)" style="opacity:0.2;fill:#FFFFFF;" width="41.93" height="329.583"/>
					
						<rect x="249.999" y="111.897" transform="matrix(0.7692 0.639 -0.639 0.7692 239.3555 -109.2897)" style="opacity:0.2;fill:#FFFFFF;" width="41.93" height="329.583"/>
				</g>
				
					<rect x="149.223" y="331.23" style="opacity:0.3;clip-path:url(#SVGID_00000178162954318748903340000010521709807400716938_);fill:#231F20;" width="200.334" height="54.213"/>
				
					<circle style="clip-path:url(#SVGID_00000178162954318748903340000010521709807400716938_);fill:#D8555F;" cx="251.296" cy="354.454" r="17.012"/>
				<g style="clip-path:url(#SVGID_00000178162954318748903340000010521709807400716938_);">
					<g>
						<path style="fill:#FFFFFF;" d="M254.485,356.295c0,0,0.557-3.341,2.515-4.084c3.659-1.389,5.916,2.301,4.323,5.962
							C257.183,358.528,254.485,356.295,254.485,356.295z"/>
					</g>
					<g>
						<path style="fill:#FFFFFF;" d="M248.128,356.12c0,0-0.706-3.312-2.695-3.967c-3.717-1.224-5.807,2.564-4.052,6.15
							C245.533,358.472,248.128,356.12,248.128,356.12z"/>
					</g>
					<g>
						<path style="fill:#FFFFFF;" d="M245.12,354.299l-2.77-1.702c2.033-3.312,5.012-4.991,8.853-4.991
							c3.649,0,6.572,0.836,8.971,4.916l-2.802,1.648c-1.647-2.801-3.37-3.313-6.169-3.313
							C248.495,350.858,246.562,351.951,245.12,354.299z"/>
					</g>
				</g>
				<g style="clip-path:url(#SVGID_00000178162954318748903340000010521709807400716938_);">
					<path style="fill:#FFFFFF;" d="M298.85,359.607h-6.165c-1.105,0-2-0.896-2-2v-6.165c0-1.105,0.895-2,2-2h6.165
						c1.105,0,2,0.895,2,2v6.165C300.85,358.711,299.954,359.607,298.85,359.607z"/>
					<polygon style="fill:#FFFFFF;" points="304.874,357.913 300.744,357.066 300.744,351.983 304.874,351.136 					"/>
				</g>
				<g style="clip-path:url(#SVGID_00000178162954318748903340000010521709807400716938_);">
					<path style="fill:#FFFFFF;" d="M204.389,356.489L204.389,356.489c-2.32,0-4.2-1.88-4.2-4.2v-5c0-2.32,1.88-4.2,4.2-4.2l0,0
						c2.32,0,4.2,1.88,4.2,4.2v5C208.589,354.609,206.708,356.489,204.389,356.489z"/>
					<g>
						<g>
							<path style="fill:#FFFFFF;" d="M209.33,352.929c-0.342,6.355-9.539,6.369-9.882,0c-0.078-1.44-2.328-1.449-2.25,0
								c0.209,3.887,3.127,7.209,7.191,7.191c4.064-0.018,6.98-3.278,7.191-7.191C211.658,351.482,209.408,351.487,209.33,352.929
								L209.33,352.929z"/>
						</g>
					</g>
					<g>
						<g>
							<path style="fill:#FFFFFF;" d="M203.264,358.995c0,1.298,0,2.596,0,3.894c0,1.448,2.25,1.45,2.25,0c0-1.298,0-2.596,0-3.894
								C205.514,357.548,203.264,357.545,203.264,358.995L203.264,358.995z"/>
						</g>
					</g>
				</g>
			</g>
			<g>
				<path style="fill:#00BDD7;" d="M408.17,183.556h-98.591c-5.523,0-10-4.477-10-10v-47.766c0-5.523,4.477-10,10-10h98.591
					c5.523,0,10,4.477,10,10v47.766C418.17,179.079,413.693,183.556,408.17,183.556z"/>
				<path style="fill:#EBF3F7;" d="M398.184,134.977h-76.618c-2.231,0-4.04-1.459-4.04-3.258l0,0c0-1.799,1.809-3.258,4.04-3.258
					h76.618c2.231,0,4.04,1.459,4.04,3.258l0,0C402.224,133.519,400.415,134.977,398.184,134.977z"/>
				<path style="fill:#EBF3F7;" d="M398.966,152.06h-78.181c-1.799,0-3.258-1.459-3.258-3.258l0,0c0-1.799,1.459-3.258,3.258-3.258
					h78.181c1.799,0,3.258,1.459,3.258,3.258l0,0C402.224,150.601,400.765,152.06,398.966,152.06z"/>
				<path style="fill:#EBF3F7;" d="M373.945,169.142h-52.379c-2.231,0-4.04-1.459-4.04-3.258l0,0c0-1.799,1.809-3.258,4.04-3.258
					h52.379c2.231,0,4.04,1.459,4.04,3.258l0,0C377.984,167.683,376.176,169.142,373.945,169.142z"/>
				<polygon style="fill:#00BDD7;" points="310.874,180.732 310.874,200.78 338.827,182.426 				"/>
			</g>
			<circle style="opacity:0.5;fill:#343A4A;" cx="251.33" cy="399.569" r="12.17"/>
		</g>
		<rect y="419.256" style="fill:#00BDD7;" width="500" height="80.744"/>
		<g style="opacity:0.75;">
			<g>
				<path style="fill:#92D4D6;" d="M84.434,99.644h61.805c5.523,0,10-4.477,10-10V62.898c0-5.523-4.477-10-10-10H84.434
					c-5.523,0-10,4.477-10,10v26.746C74.434,95.167,78.911,99.644,84.434,99.644z"/>
				<polygon style="fill:#92D4D6;" points="148.448,97.696 148.448,111.525 129.165,98.865 				"/>
				<circle style="fill:#EBF3F7;" cx="94.763" cy="75.063" r="5.033"/>
				<circle style="fill:#EBF3F7;" cx="113.964" cy="75.063" r="5.033"/>
				<path style="fill:#EBF3F7;" d="M138.198,75.063c0,2.779-2.253,5.033-5.033,5.033c-2.779,0-5.033-2.253-5.033-5.033
					c0-2.779,2.253-5.033,5.033-5.033C135.945,70.03,138.198,72.283,138.198,75.063z"/>
			</g>
			<g>
				
					<ellipse transform="matrix(0.2298 -0.9732 0.9732 0.2298 -78.4464 230.1304)" style="fill:#92D4D6;" cx="106.168" cy="164.626" rx="22.776" ry="22.776"/>
				<g>
					<path style="fill:#EBF3F7;" d="M103.422,168.12v-1.064c0-0.92,0.196-1.72,0.59-2.401c0.393-0.68,1.112-1.404,2.157-2.171
						c1.007-0.719,1.67-1.303,1.991-1.754c0.321-0.45,0.482-0.953,0.482-1.51c0-0.623-0.23-1.097-0.69-1.423
						c-0.46-0.326-1.103-0.489-1.927-0.489c-1.438,0-3.077,0.47-4.918,1.409l-1.567-3.149c2.138-1.198,4.404-1.797,6.801-1.797
						c1.974,0,3.544,0.475,4.709,1.423c1.165,0.949,1.747,2.214,1.747,3.796c0,1.055-0.24,1.965-0.719,2.732
						c-0.479,0.767-1.39,1.63-2.732,2.588c-0.92,0.681-1.502,1.198-1.747,1.553c-0.244,0.355-0.367,0.82-0.367,1.395v0.863H103.422z
						 M102.962,173.037c0-0.805,0.216-1.414,0.647-1.826c0.431-0.412,1.059-0.618,1.884-0.618c0.795,0,1.411,0.211,1.848,0.633
						c0.436,0.422,0.654,1.026,0.654,1.812c0,0.758-0.221,1.354-0.661,1.79c-0.441,0.436-1.055,0.654-1.84,0.654
						c-0.805,0-1.429-0.213-1.869-0.64C103.182,174.415,102.962,173.814,102.962,173.037z"/>
				</g>
			</g>
			<g>
				<circle style="fill:#92D4D6;" cx="347.475" cy="54.758" r="22.776"/>
				<g>
					<g>
						<rect x="345.975" y="43.902" style="fill:#EBF3F7;" width="3" height="21.712"/>
					</g>
					<g>
						<rect x="336.619" y="53.258" style="fill:#EBF3F7;" width="21.712" height="3"/>
					</g>
				</g>
			</g>
			<g>
				<circle style="fill:#92D4D6;" cx="102.461" cy="240.4" r="13.828"/>
				<g>
					<g>
						<rect x="101.55" y="233.809" style="fill:#EBF3F7;" width="1.821" height="13.182"/>
					</g>
					<g>
						<rect x="95.87" y="239.489" style="fill:#EBF3F7;" width="13.182" height="1.821"/>
					</g>
				</g>
			</g>
			<g>
				<circle style="fill:#92D4D6;" cx="406.248" cy="226.571" r="13.829"/>
				<g>
					<path style="fill:#EBF3F7;" d="M404.581,228.693v-0.646c0-0.559,0.119-1.045,0.358-1.458c0.238-0.413,0.675-0.853,1.31-1.318
						c0.611-0.436,1.014-0.792,1.209-1.065c0.195-0.273,0.292-0.579,0.292-0.917c0-0.378-0.14-0.666-0.419-0.864
						c-0.279-0.198-0.67-0.297-1.17-0.297c-0.873,0-1.868,0.285-2.986,0.856l-0.952-1.912c1.298-0.727,2.674-1.091,4.129-1.091
						c1.199,0,2.152,0.288,2.859,0.864c0.707,0.576,1.061,1.344,1.061,2.305c0,0.64-0.146,1.193-0.436,1.659
						c-0.291,0.466-0.844,0.989-1.659,1.571c-0.559,0.413-0.912,0.728-1.061,0.943c-0.148,0.215-0.223,0.498-0.223,0.847v0.524
						H404.581z M404.301,231.679c0-0.489,0.131-0.858,0.393-1.109c0.262-0.25,0.643-0.375,1.144-0.375
						c0.483,0,0.857,0.128,1.122,0.384c0.265,0.256,0.397,0.623,0.397,1.1c0,0.46-0.134,0.822-0.402,1.087
						c-0.268,0.265-0.64,0.397-1.118,0.397c-0.489,0-0.867-0.13-1.135-0.389C404.435,232.515,404.301,232.15,404.301,231.679z"/>
				</g>
			</g>
			<g>
				<circle style="fill:#92D4D6;" cx="255.354" cy="65.205" r="13.829"/>
				<g>
					<path style="fill:#EBF3F7;" d="M253.687,67.326V66.68c0-0.559,0.119-1.045,0.358-1.458c0.238-0.413,0.675-0.852,1.31-1.318
						c0.611-0.437,1.014-0.792,1.209-1.065c0.195-0.273,0.293-0.579,0.293-0.917c0-0.378-0.14-0.666-0.419-0.864
						c-0.279-0.198-0.67-0.297-1.17-0.297c-0.873,0-1.868,0.285-2.986,0.855l-0.952-1.912c1.298-0.727,2.674-1.091,4.129-1.091
						c1.199,0,2.152,0.288,2.859,0.864c0.707,0.576,1.061,1.344,1.061,2.305c0,0.64-0.146,1.193-0.436,1.659
						c-0.291,0.466-0.844,0.989-1.659,1.571c-0.559,0.413-0.912,0.728-1.061,0.943c-0.148,0.215-0.223,0.498-0.223,0.847v0.524
						H253.687z M253.408,70.312c0-0.489,0.131-0.858,0.393-1.109c0.262-0.25,0.643-0.375,1.144-0.375
						c0.483,0,0.857,0.128,1.122,0.384c0.265,0.256,0.397,0.623,0.397,1.1c0,0.46-0.134,0.822-0.402,1.087
						c-0.268,0.265-0.64,0.397-1.118,0.397c-0.489,0-0.867-0.13-1.135-0.389C253.541,71.149,253.408,70.784,253.408,70.312z"/>
				</g>
			</g>
		</g>
	</g>
</g>
</svg>
