<svg xmlns="http://www.w3.org/2000/svg" xmlns:xlink="http://www.w3.org/1999/xlink" width="244" height="244" viewBox="0 0 244 244"><defs><linearGradient id="a" x1="1" y1="0.631" x2="0.04" y2="0.638" gradientUnits="objectBoundingBox"><stop offset="0" stop-color="#fff"/><stop offset="1" stop-color="#ff7517"/></linearGradient></defs><path d="M-1673,242v-4h4v4Zm-16,0v-4h4v4Zm-16,0v-4h4v4Zm-16,0v-4h4v4Zm-16,0v-4h4v4Zm-16,0v-4h4v4Zm-16,0v-4h4v4Zm-16,0v-4h4v4Zm-16,0v-4h4v4Zm-16,0v-4h4v4Zm-16,0v-4h4v4Zm-16,0v-4h4v4Zm-16,0v-4h4v4Zm-16,0v-4h4v4Zm-16,0v-4h4v4Zm-16,0v-4h4v4Zm240-16v-4h4v4Zm-16,0v-4h4v4Zm-16,0v-4h4v4Zm-16,0v-4h4v4Zm-16,0v-4h4v4Zm-16,0v-4h4v4Zm-16,0v-4h4v4Zm-16,0v-4h4v4Zm-16,0v-4h4v4Zm-16,0v-4h4v4Zm-16,0v-4h4v4Zm-16,0v-4h4v4Zm-16,0v-4h4v4Zm-16,0v-4h4v4Zm-16,0v-4h4v4Zm-16,0v-4h4v4Zm240-16v-4h4v4Zm-16,0v-4h4v4Zm-16,0v-4h4v4Zm-16,0v-4h4v4Zm-16,0v-4h4v4Zm-16,0v-4h4v4Zm-16,0v-4h4v4Zm-16,0v-4h4v4Zm-16,0v-4h4v4Zm-16,0v-4h4v4Zm-16,0v-4h4v4Zm-16,0v-4h4v4Zm-16,0v-4h4v4Zm-16,0v-4h4v4Zm-16,0v-4h4v4Zm-16,0v-4h4v4Zm240-16v-4h4v4Zm-16,0v-4h4v4Zm-16,0v-4h4v4Zm-16,0v-4h4v4Zm-16,0v-4h4v4Zm-16,0v-4h4v4Zm-16,0v-4h4v4Zm-16,0v-4h4v4Zm-16,0v-4h4v4Zm-16,0v-4h4v4Zm-16,0v-4h4v4Zm-16,0v-4h4v4Zm-16,0v-4h4v4Zm-16,0v-4h4v4Zm-16,0v-4h4v4Zm-16,0v-4h4v4Zm240-16v-4h4v4Zm-16,0v-4h4v4Zm-16,0v-4h4v4Zm-16,0v-4h4v4Zm-16,0v-4h4v4Zm-16,0v-4h4v4Zm-16,0v-4h4v4Zm-16,0v-4h4v4Zm-16,0v-4h4v4Zm-16,0v-4h4v4Zm-16,0v-4h4v4Zm-16,0v-4h4v4Zm-16,0v-4h4v4Zm-16,0v-4h4v4Zm-16,0v-4h4v4Zm-16,0v-4h4v4Zm240-16v-4h4v4Zm-16,0v-4h4v4Zm-16,0v-4h4v4Zm-16,0v-4h4v4Zm-16,0v-4h4v4Zm-16,0v-4h4v4Zm-16,0v-4h4v4Zm-16,0v-4h4v4Zm-16,0v-4h4v4Zm-16,0v-4h4v4Zm-16,0v-4h4v4Zm-16,0v-4h4v4Zm-16,0v-4h4v4Zm-16,0v-4h4v4Zm-16,0v-4h4v4Zm-16,0v-4h4v4Zm240-16v-4h4v4Zm-16,0v-4h4v4Zm-16,0v-4h4v4Zm-16,0v-4h4v4Zm-16,0v-4h4v4Zm-16,0v-4h4v4Zm-16,0v-4h4v4Zm-16,0v-4h4v4Zm-16,0v-4h4v4Zm-16,0v-4h4v4Zm-16,0v-4h4v4Zm-16,0v-4h4v4Zm-16,0v-4h4v4Zm-16,0v-4h4v4Zm-16,0v-4h4v4Zm-16,0v-4h4v4Zm240-16v-4h4v4Zm-16,0v-4h4v4Zm-16,0v-4h4v4Zm-16,0v-4h4v4Zm-16,0v-4h4v4Zm-16,0v-4h4v4Zm-16,0v-4h4v4Zm-16,0v-4h4v4Zm-16,0v-4h4v4Zm-16,0v-4h4v4Zm-16,0v-4h4v4Zm-16,0v-4h4v4Zm-16,0v-4h4v4Zm-16,0v-4h4v4Zm-16,0v-4h4v4Zm-16,0v-4h4v4Zm240-16v-4h4v4Zm-16,0v-4h4v4Zm-16,0v-4h4v4Zm-16,0v-4h4v4Zm-16,0v-4h4v4Zm-16,0v-4h4v4Zm-16,0v-4h4v4Zm-16,0v-4h4v4Zm-16,0v-4h4v4Zm-16,0v-4h4v4Zm-16,0v-4h4v4Zm-16,0v-4h4v4Zm-16,0v-4h4v4Zm-16,0v-4h4v4Zm-16,0v-4h4v4Zm-16,0v-4h4v4Zm240-16V94h4v4Zm-16,0V94h4v4Zm-16,0V94h4v4Zm-16,0V94h4v4Zm-16,0V94h4v4Zm-16,0V94h4v4Zm-16,0V94h4v4Zm-16,0V94h4v4Zm-16,0V94h4v4Zm-16,0V94h4v4Zm-16,0V94h4v4Zm-16,0V94h4v4Zm-16,0V94h4v4Zm-16,0V94h4v4Zm-16,0V94h4v4Zm-16,0V94h4v4Zm240-16V78h4v4Zm-16,0V78h4v4Zm-16,0V78h4v4Zm-16,0V78h4v4Zm-16,0V78h4v4Zm-16,0V78h4v4Zm-16,0V78h4v4Zm-16,0V78h4v4Zm-16,0V78h4v4Zm-16,0V78h4v4Zm-16,0V78h4v4Zm-16,0V78h4v4Zm-16,0V78h4v4Zm-16,0V78h4v4Zm-16,0V78h4v4Zm-16,0V78h4v4Zm240-16V62h4v4Zm-16,0V62h4v4Zm-16,0V62h4v4Zm-16,0V62h4v4Zm-16,0V62h4v4Zm-16,0V62h4v4Zm-16,0V62h4v4Zm-16,0V62h4v4Zm-16,0V62h4v4Zm-16,0V62h4v4Zm-16,0V62h4v4Zm-16,0V62h4v4Zm-16,0V62h4v4Zm-16,0V62h4v4Zm-16,0V62h4v4Zm-16,0V62h4v4Zm240-16V46h4v4Zm-16,0V46h4v4Zm-16,0V46h4v4Zm-16,0V46h4v4Zm-16,0V46h4v4Zm-16,0V46h4v4Zm-16,0V46h4v4Zm-16,0V46h4v4Zm-16,0V46h4v4Zm-16,0V46h4v4Zm-16,0V46h4v4Zm-16,0V46h4v4Zm-16,0V46h4v4Zm-16,0V46h4v4Zm-16,0V46h4v4Zm-16,0V46h4v4Zm240-16V30h4v4Zm-16,0V30h4v4Zm-16,0V30h4v4Zm-16,0V30h4v4Zm-16,0V30h4v4Zm-16,0V30h4v4Zm-16,0V30h4v4Zm-16,0V30h4v4Zm-16,0V30h4v4Zm-16,0V30h4v4Zm-16,0V30h4v4Zm-16,0V30h4v4Zm-16,0V30h4v4Zm-16,0V30h4v4Zm-16,0V30h4v4Zm-16,0V30h4v4Zm240-16V14h4v4Zm-16,0V14h4v4Zm-16,0V14h4v4Zm-16,0V14h4v4Zm-16,0V14h4v4Zm-16,0V14h4v4Zm-16,0V14h4v4Zm-16,0V14h4v4Zm-16,0V14h4v4Zm-16,0V14h4v4Zm-16,0V14h4v4Zm-16,0V14h4v4Zm-16,0V14h4v4Zm-16,0V14h4v4Zm-16,0V14h4v4Zm-16,0V14h4v4Zm240-16V-2h4V2Zm-16,0V-2h4V2Zm-16,0V-2h4V2Zm-16,0V-2h4V2Zm-16,0V-2h4V2Zm-16,0V-2h4V2Zm-16,0V-2h4V2Zm-16,0V-2h4V2Zm-16,0V-2h4V2Zm-16,0V-2h4V2Zm-16,0V-2h4V2Zm-16,0V-2h4V2Zm-16,0V-2h4V2Zm-16,0V-2h4V2Zm-16,0V-2h4V2Zm-16,0V-2h4V2Z" transform="translate(1913 2)" fill="url(#a)"/></svg>