<svg id="filter" xmlns="http://www.w3.org/2000/svg" width="20" height="20" viewBox="0 0 20 20">
  <rect id="Rectangle_6573" data-name="Rectangle 6573" width="20" height="20" fill="none"/>
  <path id="Union_57" data-name="Union 57" d="M4,14.8v-.7H.8a.8.8,0,0,1,0-1.6H4v-.7a.8.8,0,1,1,1.6,0v3a.8.8,0,1,1-1.6,0Zm3.8-.7a.8.8,0,0,1,0-1.6h7a.8.8,0,0,1,0,1.6ZM8,9.3V8.6H.8A.8.8,0,0,1,.8,7H8V6.3a.8.8,0,1,1,1.6,0v3A.8.8,0,0,1,8,9.3Zm3.8-.7a.8.8,0,0,1,0-1.6h3a.8.8,0,0,1,0,1.6ZM4,3.8V3.1H.8a.8.8,0,1,1,0-1.6H4V.8A.8.8,0,1,1,5.6.8v3A.8.8,0,0,1,4,3.8Zm3.8-.7a.8.8,0,1,1,0-1.6h7a.8.8,0,0,1,0,1.6Z" transform="translate(2.199 2.199)" fill="#607083"/>
</svg>
