<svg id="notification" xmlns="http://www.w3.org/2000/svg" width="24" height="24" viewBox="0 0 24 24">
  <rect id="Rectangle_9592" data-name="Rectangle 9592" width="24" height="24" fill="none"/>
  <path id="Union_231" data-name="Union 231" d="M8.121,21.568A3,3,0,0,1,6,17.893l5.8,1.553a3,3,0,0,1-3.676,2.122Zm8.729-2.1L1.642,15.391A2.185,2.185,0,0,1,.294,14.35v0c-.018-.031-.035-.062-.052-.094a2.211,2.211,0,0,1,.963-2.974l.853-.422A2.163,2.163,0,0,0,3.171,9.472l.9-3.369C5.043,2.486,8.935-1,13.627.262l.413.111c4.691,1.258,6.313,6.249,5.351,9.836l-.9,3.369a2.206,2.206,0,0,0,.27,1.756l.527.793.054.09a2.21,2.21,0,0,1-.8,3.023,2.181,2.181,0,0,1-1.687.229Z" transform="translate(2 1.165)" fill="#465465" stroke="rgba(0,0,0,0)" stroke-width="1"/>
</svg>
