<svg id="User_Profile" data-name="User Profile" xmlns="http://www.w3.org/2000/svg" width="20" height="20" viewBox="0 0 20 20">
  <rect id="Rectangle_9037" data-name="Rectangle 9037" width="20" height="20" fill="none"/>
  <path id="Union_190" data-name="Union 190" d="M.8,15.8A.8.8,0,0,1,0,15V14A4.807,4.807,0,0,1,4.8,9.2h6A4.806,4.806,0,0,1,15.6,14v1a.8.8,0,0,1-.8.8ZM1.6,14v.2H14V14a3.2,3.2,0,0,0-3.2-3.2h-6A3.2,3.2,0,0,0,1.6,14ZM3.8,4a4,4,0,1,1,4,4A4,4,0,0,1,3.8,4ZM5.4,4A2.4,2.4,0,1,0,7.8,1.6,2.406,2.406,0,0,0,5.4,4Z" transform="translate(2.199 2)" fill="#607083"/>
</svg>
