<svg xmlns="http://www.w3.org/2000/svg" xmlns:xlink="http://www.w3.org/1999/xlink" width="112.545" height="101.465" viewBox="0 0 112.545 101.465">
  <defs>
    <filter id="Path_13425" x="0" y="0" width="112.545" height="101.465" filterUnits="userSpaceOnUse">
      <feOffset dx="3" dy="3" input="SourceAlpha"/>
      <feGaussianBlur stdDeviation="3" result="blur"/>
      <feFlood flood-color="#d93b3b" flood-opacity="0.502"/>
      <feComposite operator="in" in2="blur"/>
      <feComposite in="SourceGraphic"/>
    </filter>
    <filter id="Path_13425-2" x="0" y="0" width="112.545" height="101.465" filterUnits="userSpaceOnUse">
      <feOffset dx="-4" dy="-4" input="SourceAlpha"/>
      <feGaussianBlur stdDeviation="3" result="blur-2"/>
      <feFlood flood-color="#d93b3b" result="color"/>
      <feComposite operator="out" in="SourceGraphic" in2="blur-2"/>
      <feComposite operator="in" in="color"/>
      <feComposite operator="in" in2="SourceGraphic"/>
    </filter>
    <filter id="Path_13426">
      <feOffset dx="6" dy="4" input="SourceAlpha"/>
      <feGaussianBlur stdDeviation="3" result="blur-3"/>
      <feFlood flood-color="#fff" flood-opacity="0.4" result="color-2"/>
      <feComposite operator="out" in="SourceGraphic" in2="blur-3"/>
      <feComposite operator="in" in="color-2"/>
      <feComposite operator="in" in2="SourceGraphic"/>
    </filter>
    <filter id="Union_105" x="44.264" y="23.746" width="22.018" height="62.088" filterUnits="userSpaceOnUse">
      <feOffset dx="2" dy="2" input="SourceAlpha"/>
      <feGaussianBlur stdDeviation="2" result="blur-4"/>
      <feFlood flood-color="#d03333"/>
      <feComposite operator="in" in2="blur-4"/>
      <feComposite in="SourceGraphic"/>
    </filter>
    <filter id="Union_105-2" x="44.264" y="23.746" width="22.018" height="62.088" filterUnits="userSpaceOnUse">
      <feOffset dx="-1" dy="-1" input="SourceAlpha"/>
      <feGaussianBlur stdDeviation="1" result="blur-5"/>
      <feFlood flood-color="#fd6262" result="color-3"/>
      <feComposite operator="out" in="SourceGraphic" in2="blur-5"/>
      <feComposite operator="in" in="color-3"/>
      <feComposite operator="in" in2="SourceGraphic"/>
    </filter>
    <filter id="Union_106" x="48.264" y="27.746" width="10.018" height="50.088" filterUnits="userSpaceOnUse">
      <feOffset dx="1" dy="1" input="SourceAlpha"/>
      <feGaussianBlur stdDeviation="1" result="blur-6"/>
      <feFlood flood-color="#fff" result="color-4"/>
      <feComposite operator="out" in="SourceGraphic" in2="blur-6"/>
      <feComposite operator="in" in="color-4"/>
      <feComposite operator="in" in2="SourceGraphic"/>
    </filter>
  </defs>
  <g id="Group_26574" data-name="Group 26574" transform="translate(-58 -63.144)">
    <g id="Group_24249" data-name="Group 24249" transform="translate(64 69.144)">
      <g id="Group_24246" data-name="Group 24246">
        <g data-type="innerShadowGroup">
          <g transform="matrix(1, 0, 0, 1, -6, -6)" filter="url(#Path_13425)">
            <path id="Path_13425-3" data-name="Path 13425" d="M38.986,4.749a9.605,9.605,0,0,1,16.573,0L93.225,69a9.606,9.606,0,0,1-8.286,14.462H9.605A9.6,9.6,0,0,1,1.319,69Z" transform="translate(6 6)" fill="#fd6262"/>
          </g>
          <g transform="matrix(1, 0, 0, 1, -6, -6)" filter="url(#Path_13425-2)">
            <path id="Path_13425-4" data-name="Path 13425" d="M38.986,4.749a9.605,9.605,0,0,1,16.573,0L93.225,69a9.606,9.606,0,0,1-8.286,14.462H9.605A9.6,9.6,0,0,1,1.319,69Z" transform="translate(6 6)" fill="#fff"/>
          </g>
        </g>
        <g transform="matrix(1, 0, 0, 1, -6, -6)" filter="url(#Path_13426)">
          <path id="Path_13426-2" data-name="Path 13426" d="M38.986,4.749a9.605,9.605,0,0,1,16.573,0L93.225,69a9.606,9.606,0,0,1-8.286,14.462H9.605A9.6,9.6,0,0,1,1.319,69Z" transform="translate(6 6)" fill="#fff"/>
        </g>
      </g>
      <g id="Group_24247" data-name="Group 24247" transform="translate(42.264 21.746)">
        <g data-type="innerShadowGroup">
          <g transform="matrix(1, 0, 0, 1, -48.26, -27.75)" filter="url(#Union_105)">
            <path id="Union_105-3" data-name="Union 105" d="M0,45.079a5.009,5.009,0,1,1,5.009,5.008A5.008,5.008,0,0,1,0,45.079ZM0,30.053V5.009a5.009,5.009,0,0,1,10.018,0V30.053A5.009,5.009,0,0,1,0,30.053Z" transform="translate(48.26 27.75)" fill="#ebeced"/>
          </g>
          <g transform="matrix(1, 0, 0, 1, -48.26, -27.75)" filter="url(#Union_105-2)">
            <path id="Union_105-4" data-name="Union 105" d="M0,45.079a5.009,5.009,0,1,1,5.009,5.008A5.008,5.008,0,0,1,0,45.079ZM0,30.053V5.009a5.009,5.009,0,0,1,10.018,0V30.053A5.009,5.009,0,0,1,0,30.053Z" transform="translate(48.26 27.75)" fill="#fff"/>
          </g>
        </g>
        <g transform="matrix(1, 0, 0, 1, -48.26, -27.75)" filter="url(#Union_106)">
          <path id="Union_106-2" data-name="Union 106" d="M0,45.079a5.009,5.009,0,1,1,5.009,5.008A5.008,5.008,0,0,1,0,45.079ZM0,30.053V5.009a5.009,5.009,0,0,1,10.018,0V30.053A5.009,5.009,0,0,1,0,30.053Z" transform="translate(48.26 27.75)" fill="#fff"/>
        </g>
      </g>
    </g>
  </g>
</svg>
