<svg xmlns="http://www.w3.org/2000/svg" xmlns:xlink="http://www.w3.org/1999/xlink" width="100" height="100" viewBox="0 0 100 100">
  <defs>
    <filter id="Ellipse_373">
      <feOffset dx="-2" dy="-2" input="SourceAlpha"/>
      <feGaussianBlur stdDeviation="2" result="blur"/>
      <feFlood flood-color="#18478b" result="color"/>
      <feComposite operator="out" in="SourceGraphic" in2="blur"/>
      <feComposite operator="in" in="color"/>
      <feComposite operator="in" in2="SourceGraphic"/>
    </filter>
    <filter id="Ellipse_374">
      <feOffset dx="2" dy="2" input="SourceAlpha"/>
      <feGaussianBlur stdDeviation="2" result="blur-2"/>
      <feFlood flood-color="#fff" flood-opacity="0.4" result="color-2"/>
      <feComposite operator="out" in="SourceGraphic" in2="blur-2"/>
      <feComposite operator="in" in="color-2"/>
      <feComposite operator="in" in2="SourceGraphic"/>
    </filter>
    <filter id="Union_105" x="39.044" y="19.215" width="27.913" height="67.569" filterUnits="userSpaceOnUse">
      <feOffset dx="3" dy="3" input="SourceAlpha"/>
      <feGaussianBlur stdDeviation="3" result="blur-3"/>
      <feFlood flood-color="#073374"/>
      <feComposite operator="in" in2="blur-3"/>
      <feComposite in="SourceGraphic"/>
    </filter>
    <filter id="Union_105-2" x="39.044" y="19.215" width="27.913" height="67.569" filterUnits="userSpaceOnUse">
      <feOffset dx="-1" dy="-1" input="SourceAlpha"/>
      <feGaussianBlur stdDeviation="1.5" result="blur-4"/>
      <feFlood flood-color="#185ec4" result="color-3"/>
      <feComposite operator="out" in="SourceGraphic" in2="blur-4"/>
      <feComposite operator="in" in="color-3"/>
      <feComposite operator="in" in2="SourceGraphic"/>
    </filter>
    <filter id="Union_106" x="45.043" y="25.215" width="9.914" height="49.569" filterUnits="userSpaceOnUse">
      <feOffset dx="1" dy="1" input="SourceAlpha"/>
      <feGaussianBlur stdDeviation="1.5" result="blur-5"/>
      <feFlood flood-color="#fff" result="color-4"/>
      <feComposite operator="out" in="SourceGraphic" in2="blur-5"/>
      <feComposite operator="in" in="color-4"/>
      <feComposite operator="in" in2="SourceGraphic"/>
    </filter>
  </defs>
  <g id="Group_25591" data-name="Group 25591" transform="translate(-10 -10)">
    <g id="Group_24248" data-name="Group 24248" transform="translate(2 2)">
      <g id="Group_24242" data-name="Group 24242">
        <g data-type="innerShadowGroup">
          <circle id="Ellipse_373-2" data-name="Ellipse 373" cx="50" cy="50" r="50" transform="translate(8 8)" fill="#185ec4"/>
          <g transform="matrix(1, 0, 0, 1, 8, 8)" filter="url(#Ellipse_373)">
            <circle id="Ellipse_373-3" data-name="Ellipse 373" cx="50" cy="50" r="50" fill="#fff"/>
          </g>
        </g>
        <g transform="matrix(1, 0, 0, 1, 8, 8)" filter="url(#Ellipse_374)">
          <circle id="Ellipse_374-2" data-name="Ellipse 374" cx="50" cy="50" r="50" fill="#fff"/>
        </g>
      </g>
    </g>
    <g id="Group_25592" data-name="Group 25592" transform="translate(64.957 84.785) rotate(180)">
      <g data-type="innerShadowGroup">
        <g transform="matrix(-1, 0, 0, -1, 54.96, 74.78)" filter="url(#Union_105)">
          <path id="Union_105-3" data-name="Union 105" d="M0,44.612a4.957,4.957,0,1,1,4.956,4.957A4.957,4.957,0,0,1,0,44.612ZM4,34.7a4,4,0,0,1-4-4V4A4,4,0,0,1,4,0H5.914a4,4,0,0,1,4,4V30.7a4,4,0,0,1-4,4Z" transform="translate(54.96 74.78) rotate(180)" fill="#ebeced"/>
        </g>
        <g transform="matrix(-1, 0, 0, -1, 54.96, 74.78)" filter="url(#Union_105-2)">
          <path id="Union_105-4" data-name="Union 105" d="M0,44.612a4.957,4.957,0,1,1,4.956,4.957A4.957,4.957,0,0,1,0,44.612ZM4,34.7a4,4,0,0,1-4-4V4A4,4,0,0,1,4,0H5.914a4,4,0,0,1,4,4V30.7a4,4,0,0,1-4,4Z" transform="translate(54.96 74.78) rotate(180)" fill="#fff"/>
        </g>
      </g>
      <g transform="matrix(-1, 0, 0, -1, 54.96, 74.78)" filter="url(#Union_106)">
        <path id="Union_106-2" data-name="Union 106" d="M0,44.612a4.957,4.957,0,1,1,4.957,4.957A4.957,4.957,0,0,1,0,44.612ZM4,34.7a4,4,0,0,1-4-4V4A4,4,0,0,1,4,0H5.914a4,4,0,0,1,4,4V30.7a4,4,0,0,1-4,4Z" transform="translate(54.96 74.78) rotate(180)" fill="#fff"/>
      </g>
    </g>
  </g>
</svg>
