<svg id="Logout" xmlns="http://www.w3.org/2000/svg" width="20" height="20" viewBox="0 0 20 20">
  <rect id="Rectangle_9037" data-name="Rectangle 9037" width="20" height="20" fill="none"/>
  <path id="Union_175" data-name="Union 175" d="M.8,15.6a.8.8,0,0,1-.8-.8V.8A.8.8,0,0,1,.8,0h8a.8.8,0,0,1,.8.8v3A.8.8,0,1,1,8,3.8V1.6H1.6V14H8V11.8a.8.8,0,1,1,1.6,0v3a.8.8,0,0,1-.8.8Zm10.435-4.234a.8.8,0,0,1,0-1.131L12.869,8.6H4.8A.8.8,0,0,1,4.8,7h8.07L11.234,5.365a.8.8,0,0,1,1.131-1.131l2.969,2.972a.8.8,0,0,1,.025,1.166l-2.993,2.993a.8.8,0,0,1-1.131,0Z" transform="translate(2.201 2.199)" fill="#607083"/>
</svg>
