<svg xmlns="http://www.w3.org/2000/svg" width="18.016" height="15.369" viewBox="0 0 18.016 15.369">
  <g id="mark-all-as-read-svgrepo-com" transform="translate(-1.925 -4.925)">
    <path id="Path_21620" data-name="Path 21620" d="M10.2,5.7l-.637-.637a.431.431,0,0,0-.637,0L4.951,9,3.34,7.426a.431.431,0,0,0-.637,0l-.637.637a.431.431,0,0,0,0,.637l2.211,2.211a.9.9,0,0,0,1.274,0L10.2,6.34A.507.507,0,0,0,10.2,5.7Z" transform="translate(0)" fill="#607083"/>
    <path id="Path_21621" data-name="Path 21621" d="M34.332,14H26.5a.549.549,0,0,1-.6-.5v-1a.549.549,0,0,1,.6-.5h7.832a.549.549,0,0,1,.6.5v1A.549.549,0,0,1,34.332,14Z" transform="translate(-14.99 -4.424)" fill="#607083"/>
    <path id="Path_21622" data-name="Path 21622" d="M23.265,28.3H8.8a.549.549,0,0,1-.6-.5v-1a.549.549,0,0,1,.6-.5H23.265a.549.549,0,0,1,.6.5v1A.549.549,0,0,1,23.265,28.3Z" transform="translate(-3.923 -13.365)" fill="#607083"/>
    <path id="Path_21623" data-name="Path 21623" d="M23.265,42.6H8.8a.549.549,0,0,1-.6-.5v-1a.549.549,0,0,1,.6-.5H23.265a.549.549,0,0,1,.6.5v1A.549.549,0,0,1,23.265,42.6Z" transform="translate(-3.923 -22.306)" fill="#607083"/>
  </g>
</svg>
